<svg id="Layer_1" enable-background="new 0 0 512 512" viewBox="0 0 512 512" xmlns="http://www.w3.org/2000/svg"><g><g clip-rule="evenodd" fill-rule="evenodd"><path d="m70.3 74.3h372.4c20.4 0 37.2 16.7 37.2 37.2v231.2c0 20.5-16.7 37.2-37.2 37.2h-372.4c-20.4 0-37.2-16.7-37.2-37.2v-231.2c.1-20.5 16.8-37.2 37.2-37.2z" fill="#902e57"/><path d="m346.7 77.7h65.1v147.9h-65.1z" fill="#752645"/><path d="m379.2 279.7 16.3-27 16.3-27h-32.6-32.5l16.2 27z" fill="#752645"/><path d="m346.7 74.3h65.1v3.4h-65.1z" fill="#752645"/><path d="m73.6 107.3h366c4 0 7.2 3.3 7.2 7.2v225c0 4-3.3 7.3-7.2 7.3h-366c-4 0-7.3-3.3-7.3-7.3v-225c0-3.9 3.3-7.2 7.3-7.2z" fill="#8fcae5"/><path d="m339.9 107.3h71.9v121.3h-71.9z" fill="#73a4ba"/><path d="m375.8 284.1 18-27.7 18-27.7h-36-35.9l18 27.7z" fill="#73a4ba"/><path d="m310.5 160.6h-217.6v152.1h96.4v6.5c0 4.5 3.7 8.2 8.2 8.2h8.3c4.5 0 8.2-3.7 8.2-8.2v-6.5h96.4v-152.1z" fill="#73a4ba"/><path d="m118.5 154.7v19.8 104.1c9.5-.6 20.6-.4 32.4.9 17.8 1.8 33.9 5.6 45.4 10.2v-110-19.8-5.4c-11.5-4.6-27.6-8.4-45.4-10.2-11.8-1.2-22.9-1.5-32.4-.9z" fill="#73a4ba"/><path d="m284.9 154.1v19.8 104.1c-9.5-.6-20.5-.4-32.4.8-17.8 1.9-33.9 5.7-45.4 10.2v-109.9-19.8-5.5c11.5-4.6 27.6-8.4 45.4-10.2 11.8-1.2 22.9-1.5 32.4-.9z" fill="#81b6cf"/><path d="m149.6 483.9h213.8c14.3 0 26-11.7 26-26 0-14.3-11.7-26-26-26h-213.8c-14.3 0-26 11.7-26 26 0 14.3 11.7 26 26 26z" fill="#902e57"/><path d="m203.9 379.8h105.3v52h-105.3z" fill="#f79257"/><path d="m303.9 155.1h-205.1v147.9h90.9v6.3c0 4.4 3.5 8 7.8 8h7.8c4.3 0 7.8-3.6 7.8-8v-6.3h90.9v-147.9z" fill="#80311a"/><path d="m201.6 155.1h-83.1v19.4 104.1c10.1-.6 21.9-.4 34.6.9 19 1.8 36.2 5.6 48.5 10.2v-110-19.8z" fill="#672912"/><path d="m284.9 155.1h-83.3v4.3 19.9 110.4c12.3-4.6 29.6-8.4 48.6-10.3 12.7-1.2 24.5-1.5 34.7-.9v-104.5z" fill="#672912"/><path d="m279.4 148.6v19.8 104c-9.5-.6-20.6-.4-32.4.9-17.8 1.9-33.9 5.6-45.4 10.2v-109.9-19.8-5.5c11.5-4.6 27.6-8.4 45.4-10.2 11.8-1.2 22.9-1.5 32.4-.9z" fill="#fad1a2"/><path d="m123.8 148.6v19.8 104c9.5-.6 20.6-.4 32.4.9 17.8 1.9 33.9 5.6 45.4 10.2v-109.9-19.8-5.5c-11.5-4.6-27.6-8.4-45.4-10.2-11.8-1.2-22.9-1.5-32.4-.9z" fill="#fad1a2"/></g><path d="m179.6 213.1c4.4.7 7.3 4.8 6.6 9.2-.7 4.3-4.8 7.3-9.2 6.5l-25.4-4.3c-4.4-.7-7.3-4.8-6.6-9.2s4.8-7.3 9.2-6.6zm46.6 15.7c-4.3.7-8.4-2.2-9.2-6.5-.7-4.4 2.2-8.5 6.6-9.2l25.4-4.3c4.3-.7 8.4 2.2 9.2 6.6.7 4.3-2.2 8.4-6.6 9.2zm0-25.9c-4.3.7-8.4-2.2-9.2-6.5-.7-4.4 2.2-8.5 6.6-9.2l31.2-5.3c4.3-.7 8.4 2.2 9.2 6.5.7 4.4-2.2 8.5-6.6 9.2zm0-27.3c-4.3.7-8.4-2.2-9.2-6.6-.7-4.3 2.2-8.4 6.6-9.2l25.4-4.3c4.3-.7 8.4 2.2 9.2 6.5.7 4.4-2.2 8.5-6.6 9.2zm0 80.6c-4.3.7-8.4-2.2-9.2-6.6-.7-4.3 2.2-8.4 6.6-9.2l31.2-5.3c4.3-.7 8.4 2.2 9.2 6.6.7 4.3-2.2 8.4-6.6 9.2zm-46.6-69c4.4.7 7.3 4.8 6.6 9.2-.7 4.3-4.8 7.3-9.2 6.5l-31.2-5.3c-4.4-.7-7.3-4.8-6.6-9.2.7-4.3 4.8-7.3 9.2-6.5zm0-27.4c4.4.7 7.3 4.8 6.6 9.2s-4.8 7.3-9.2 6.6l-25.4-4.3c-4.4-.7-7.3-4.8-6.6-9.2.7-4.3 4.8-7.3 9.2-6.5zm0 80.6c4.4.7 7.3 4.8 6.6 9.2s-4.8 7.3-9.2 6.6l-31.2-5.3c-4.4-.7-7.3-4.8-6.6-9.2s4.8-7.3 9.2-6.6z" fill="#fff"/><path clip-rule="evenodd" d="m341.4 74.3h65.1v147.9h-65.1z" fill="#d71b5a" fill-rule="evenodd"/><path clip-rule="evenodd" d="m373.9 276.3 16.3-27.1 16.3-26.9h-32.6-32.5l16.2 26.9z" fill="#f6851f" fill-rule="evenodd"/><path clip-rule="evenodd" d="m341.4 74.3h65.1v-21.4c0-10.5-8.6-19-19-19h-27.1c-10.5 0-19 8.5-19 19z" fill="#f6851f" fill-rule="evenodd"/></g></svg>