<svg id="Layer_1" enable-background="new 0 0 512 512" height="512" viewBox="0 0 512 512" width="512" xmlns="http://www.w3.org/2000/svg" xmlns:xlink="http://www.w3.org/1999/xlink"><linearGradient id="SVGID_1_" gradientUnits="userSpaceOnUse" x1="74.981" x2="437.019" y1="74.981" y2="437.019"><stop offset="0" stop-color="#00dbde"/><stop offset="1" stop-color="#fc00ff"/></linearGradient><g><circle cx="256" cy="256" fill="url(#SVGID_1_)" r="256"/><g><g><g id="XMLID_1_" fill="#fffffe"><path d="m289.6 346.8 6.7 17.5h-80.6l6.7-17.5z"/><path d="m197.2 393h-21.3l28.3-73.4h21.1z"/><path d="m286.7 319.6h21.1l28.3 73.4h-21.2z"/><path d="m126 312.7c-9.3 0-16.8-7.5-16.8-16.8v-160.1c0-9.2 7.5-16.8 16.8-16.8h260c9.2 0 16.8 7.5 16.8 16.8v160.1c0 9.2-7.5 16.8-16.8 16.8zm257.6-153.8c0-1.9-1.6-3.5-3.5-3.5h-77.7c-1.9 0-3.5 1.6-3.5 3.5s1.6 3.5 3.5 3.5h77.7c1.9-.1 3.5-1.6 3.5-3.5zm0 22.8c0-1.9-1.6-3.5-3.5-3.5h-77.7c-1.9 0-3.5 1.6-3.5 3.5s1.6 3.5 3.5 3.5h77.7c1.9-.1 3.5-1.6 3.5-3.5zm0 22.8c0-1.9-1.6-3.5-3.5-3.5h-77.7c-1.9 0-3.5 1.6-3.5 3.5s1.6 3.5 3.5 3.5h77.7c1.9-.1 3.5-1.6 3.5-3.5zm0 22.8c0-1.9-1.6-3.5-3.5-3.5h-77.7c-1.9 0-3.5 1.6-3.5 3.5s1.6 3.5 3.5 3.5h77.7c1.9-.1 3.5-1.6 3.5-3.5zm0 22.7c0-1.9-1.6-3.5-3.5-3.5h-77.7c-1.9 0-3.5 1.6-3.5 3.5s1.6 3.5 3.5 3.5h77.7c1.9 0 3.5-1.5 3.5-3.5zm0 22.8c0-1.9-1.6-3.5-3.5-3.5h-77.7c-1.9 0-3.5 1.6-3.5 3.5s1.6 3.5 3.5 3.5h77.7c1.9 0 3.5-1.5 3.5-3.5zm-103.6-56.9c0-10.9-2.3-21.3-6.6-30.7-6.8-15-18.3-27.4-32.6-35.2-9.9-5.4-21.1-8.6-33-9-.1 0-.2 0-.3 0-.8 0-1.6-.1-2.3-.1-15.5 0-29.9 4.7-41.8 12.8-19.9 13.4-33 36.2-33 62 0 2.6.1 5.1.4 7.6 2.8 27.7 20.8 51.1 45.6 61.4 6.1 2.5 12.5 4.3 19.3 5.2 3.1.4 6.3.6 9.6.6 23.4 0 44.4-10.9 58.1-27.7 10.3-12.7 16.6-29.1 16.6-46.9z"/><path d="m268 190.3c3.2 7.9 5 16.5 5 25.5 0 13.7-4.1 26.6-11.1 37.2-.2-1.8-.1-3.7.5-5.7 2-8.3 1-16.4-2.7-21.8-2.8-4.1-7.2-6.6-12.5-7.3-8.9-1.1-14.9-3.8-17.2-7.9-1.8-3.1-1.5-7.2.8-12.4 2-4.4 7-6.6 11.4-5.1 5.2 1.8 9.6 2.3 13.2 1.5 2-.4 4.1-1.2 6.1-2 2.1-.8 4.4-1.7 6.5-2z"/><path d="m232.9 153.9c-4 3.6-6.6 7.3-8.1 11.5-.6 1.7-2.4 2.7-4.1 2.3-1.9-.4-3.8-1-5.7-1.6-1.8-.5-2.8-2.3-2.4-4.1v-.1c0-.1 0-.1 0-.1 1.1-5.7 1.3-10 .5-13.5 7 1 13.6 2.8 19.8 5.6z"/><path d="m178.6 178.4c5.3 5.9 6.2 9.4 5.9 10.5-.1.6-1.1 1-1.8 1.2-4.4 1.4-8.1 4.5-10.2 8.6-.7 1.3-2.7 5.3-11.9 1.1-10.5-4.8-14.2 2.4-16.9 7.6-1.6 3.1-3.3 6.4-6.2 9.1 0-.3 0-.6 0-.9 0-21.8 10.4-41.3 26.4-53.7 3.1 6.8 5.9 8.9 9.1 11.2 1.6 1.5 3.3 2.8 5.6 5.3z"/><path d="m205.6 148c1.1 2.1 1.6 5.5.2 12.6-1.2 5.3 1.9 10.6 7.1 12.3 2 .7 4.2 1.2 6.2 1.7.8.2 1.6.3 2.3.3 4.4 0 8.4-2.7 10-7 1.4-3.7 4-7 8.2-10.4 10.6 6.3 19.5 15.4 25.4 26.4-2.2.5-4.2 1.4-6.1 2.1-1.8.8-3.5 1.4-4.9 1.7-2.3.5-5.6.1-9.5-1.3-8-2.7-16.6 1.2-20.1 8.9-3.2 7.2-3.3 13.5-.5 18.6 3.5 6.1 11 10 22.4 11.3 3.4.4 5.9 1.8 7.6 4.3 2.6 3.8 3.2 10 1.6 16.2-1.2 5-.9 9.9 1 14.4-12.4 14.4-30.9 23.6-51.3 23.6-1.6 0-3.3-.1-5-.2 1.5-5.5 5.2-10.2 15.4-16.7 6.1-3.9 13.6-11.8 14.5-21.1.6-6.3-3.2-11.1-10.5-13.1-1.4-.4-2.9-.6-4.2-.9-1.6-.3-3.1-.6-4.6-1-1.8-.6-3.3-1.4-4.2-2.5-.4-.5-.8-1-1.2-1.6-.9-1.2-1.8-2.5-3.2-3.8-4.2-3.8-9.4-5.9-14.8-6.2-7.4-.4-14.9 2.9-19.5 8.5-5.1 6.2-6.1 14.8-3 23.1 1.9 5.1 4.6 7.8 6.9 10 3.3 3.3 5.6 5.5 3.5 16.5-.1.5-.3 1.2-.3 1.7-19.6-9.8-33.8-28.9-36.8-51.5 6.7-4 9.6-9.9 11.9-14.3 2.9-5.8 3.4-6.4 7.7-4.4 13.8 6.3 19.3-.9 21-4.2 1.3-2.5 3.5-4.4 6.1-5.2 4.4-1.4 5.9-4 6.5-6 1.2-4.4-1.3-10.2-7.4-17.1-2.7-3-5-4.7-6.8-6.1-2.8-2.1-4.8-3.5-7.4-9.6 10.4-6.4 22.5-10.1 35.6-10.1-.1.1 0 .1.2.1z"/><path d="m217.7 239.4c5.8 1.6 5.5 4.5 5.4 5.7-.6 6.3-6.3 12.7-11.3 15.9-12.4 7.9-16.9 14.4-18.6 21.6-4.1-.8-8.1-1.8-11.8-3.3.1-1 .3-2 .6-3.1 0-.1 0-.1.1-.1 2.7-13.7-.5-18.1-5.4-22.8-2-2-3.9-3.8-5.3-7.4-2.3-5.9-1.6-12.1 1.9-16.3 3.2-4 8.5-6.3 13.7-6 3.8.2 7.6 1.8 10.5 4.4.8.8 1.5 1.6 2.3 2.7.5.6.9 1.2 1.4 1.8 1.8 2.1 4.2 3.7 7.4 4.7 1.8.6 3.7 1 5.4 1.2 1.3.5 2.5.7 3.7 1z"/></g></g></g></g></svg>