<svg id="Layer_1" enable-background="new 0 0 256 256" height="512" viewBox="0 0 256 256" width="512" xmlns="http://www.w3.org/2000/svg"><g><g><path d="m178.346 248.616h-100.692c-3.888 0-7.039-3.152-7.039-7.039 0-3.888 3.152-7.039 7.039-7.039h100.692c3.888 0 7.039 3.152 7.039 7.039 0 3.887-3.151 7.039-7.039 7.039z" fill="#a4c9ff"/></g><g><path d="m232.568 207.378h-209.136c-5.634 0-10.202-4.567-10.202-10.202v-132.623c0-5.634 4.567-10.202 10.202-10.202h209.137c5.634 0 10.202 4.567 10.202 10.202v132.623c-.001 5.634-4.568 10.202-10.203 10.202z" fill="#a4c9ff"/></g><g><path d="m25.982 190.8v-119.871c0-2.113 1.713-3.826 3.826-3.826h196.384c2.113 0 3.826 1.713 3.826 3.826v119.871c0 2.113-1.713 3.826-3.826 3.826h-196.384c-2.113 0-3.826-1.713-3.826-3.826z" fill="#6bdddd"/></g><g><path d="m105.684 207.378h44.633v27.16h-44.633z" fill="#e0ebfc"/></g><g><path d="m178.346 250.615h-100.692c-4.984 0-9.039-4.055-9.039-9.039s4.055-9.039 9.039-9.039h100.691c4.984 0 9.039 4.055 9.039 9.039s-4.054 9.039-9.038 9.039zm-100.692-14.078c-2.778 0-5.039 2.261-5.039 5.039s2.261 5.039 5.039 5.039h100.691c2.778 0 5.039-2.261 5.039-5.039s-2.261-5.039-5.039-5.039z" fill="#3762cc"/></g><g><path d="m232.568 209.378h-209.136c-6.729 0-12.202-5.474-12.202-12.202v-132.623c0-6.729 5.474-12.202 12.202-12.202h209.137c6.729 0 12.202 5.474 12.202 12.202v132.623c0 6.728-5.474 12.202-12.203 12.202zm-209.136-153.027c-4.522 0-8.202 3.68-8.202 8.202v132.623c0 4.522 3.68 8.202 8.202 8.202h209.137c4.522 0 8.202-3.68 8.202-8.202v-132.623c0-4.522-3.68-8.202-8.202-8.202z" fill="#3762cc"/></g><g><path d="m150.316 236.537h-44.633c-1.104 0-2-.896-2-2v-27.159c0-1.104.896-2 2-2h44.633c1.104 0 2 .896 2 2v27.159c0 1.105-.895 2-2 2zm-42.632-4h40.633v-23.159h-40.633z" fill="#3762cc"/></g><g><path d="m226.192 196.626h-196.384c-3.212 0-5.825-2.613-5.825-5.826v-119.871c0-3.212 2.613-5.825 5.825-5.825h196.385c3.212 0 5.825 2.613 5.825 5.825v119.871c0 3.213-2.614 5.826-5.826 5.826zm-196.384-127.522c-1.007 0-1.825.818-1.825 1.825v119.871c0 1.007.818 1.826 1.825 1.826h196.385c1.007 0 1.825-.819 1.825-1.826v-119.871c0-1.007-.818-1.825-1.825-1.825z" fill="#3762cc"/></g><g><path d="m128 155.538h-84.573c-2.031 0-3.677-1.646-3.677-3.677v-109.026c0-2.031 1.646-3.677 3.677-3.677h78.001c3.63 0 6.572 2.942 6.572 6.572z" fill="#4671c6"/></g><g><path d="m128 155.538h84.573c2.031 0 3.677-1.646 3.677-3.677v-109.026c0-2.031-1.646-3.677-3.677-3.677h-78.001c-3.63 0-6.572 2.942-6.572 6.572z" fill="#4671c6"/></g><g><path d="m128 157.538h-84.573c-3.13 0-5.677-2.547-5.677-5.678v-109.025c0-3.13 2.547-5.677 5.677-5.677h78.001c4.727 0 8.572 3.846 8.572 8.572v109.808c0 1.105-.896 2-2 2zm-84.573-116.38c-.925 0-1.677.752-1.677 1.677v109.025c0 .925.752 1.678 1.677 1.678h82.573v-107.808c0-2.521-2.051-4.572-4.572-4.572z" fill="#3762cc"/></g><g><path d="m212.573 157.538h-84.573c-1.104 0-2-.896-2-2v-109.808c0-4.727 3.846-8.572 8.572-8.572h78.001c3.13 0 5.677 2.547 5.677 5.677v109.025c0 3.131-2.547 5.678-5.677 5.678zm-82.573-4h82.573c.925 0 1.677-.753 1.677-1.678v-109.025c0-.925-.752-1.677-1.677-1.677h-78.001c-2.521 0-4.572 2.051-4.572 4.572z" fill="#3762cc"/></g><g><path d="m201.542 33.21v6.067h-73.542-73.542v-6.067c-5.638.613-5.963 6.067-5.963 6.067v110.312h79.505 79.505v-110.312c-.001 0-.325-5.454-5.963-6.067z" fill="#b9befc"/></g><g><path d="m207.505 151.59h-159.01c-1.104 0-2-.896-2-2v-110.313c0-.04.001-.079.004-.119.146-2.47 1.955-7.308 7.743-7.937.568-.063 1.129.121 1.552.5s.664.92.664 1.488v4.067h143.084v-4.066c0-.568.241-1.109.664-1.488s.98-.563 1.552-.5c5.788.629 7.597 5.467 7.743 7.937.003.04.004.079.004.119v110.312c0 1.104-.896 2-2 2zm-157.01-4h155.01v-108.235c-.038-.395-.304-2.295-1.963-3.398v3.32c0 1.104-.896 2-2 2h-147.084c-1.104 0-2-.896-2-2v-3.324c-1.69 1.117-1.933 3.056-1.963 3.396z" fill="#3762cc"/></g><g><path d="m128 149.59h-73.542v-116.38h67.499c3.337 0 6.043 2.706 6.043 6.043z" fill="#e0ebfc"/></g><g><path d="m128 149.59h73.542v-116.38h-67.499c-3.337 0-6.043 2.706-6.043 6.043z" fill="#e0ebfc"/></g><g><path d="m128 151.59h-73.542c-1.104 0-2-.896-2-2v-116.38c0-1.104.896-2 2-2h67.499c4.435 0 8.043 3.608 8.043 8.043v110.337c0 1.104-.896 2-2 2zm-71.542-4h69.542v-108.337c0-2.229-1.813-4.043-4.043-4.043h-65.499z" fill="#3762cc"/></g><g><path d="m201.542 151.59h-73.542c-1.104 0-2-.896-2-2v-110.337c0-4.435 3.608-8.043 8.043-8.043h67.499c1.104 0 2 .896 2 2v116.38c0 1.104-.896 2-2 2zm-71.542-4h69.542v-112.38h-65.499c-2.229 0-4.043 1.813-4.043 4.043z" fill="#3762cc"/></g><g><path d="m122.037 143.641h-67.579c-5.638.601-5.963 5.948-5.963 5.948h79.504c.001.001-.324-5.347-5.962-5.948z" fill="#b9befc"/></g><g><path d="m201.542 143.641h-67.579c-5.638.601-5.963 5.948-5.963 5.948h73.542 5.963c-.001.001-.325-5.347-5.963-5.948z" fill="#b9befc"/></g><g><path d="m128 151.59h-79.505c-.552 0-1.078-.228-1.456-.629-.378-.402-.574-.942-.54-1.492.147-2.434 1.957-7.199 7.747-7.815.07-.008.142-.012.212-.012h67.579c.07 0 .142.004.212.012 5.791.616 7.6 5.382 7.747 7.815.033.551-.162 1.09-.54 1.492-.378.401-.904.629-1.456.629zm-76.771-4h74.051c-.567-.879-1.572-1.731-3.356-1.948h-67.353c-1.769.215-2.773 1.074-3.342 1.948z" fill="#3762cc"/></g><g><path d="m207.505 151.59h-79.505c-.552 0-1.078-.228-1.456-.629-.378-.402-.573-.941-.54-1.492.147-2.434 1.956-7.199 7.747-7.815.07-.008.142-.012.212-.012h67.579c.07 0 .142.004.212.012 5.79.616 7.6 5.382 7.747 7.815.034.55-.162 1.09-.54 1.492-.378.401-.904.629-1.456.629zm-76.783-4h74.063c-.566-.879-1.572-1.731-3.355-1.948h-67.353c-1.783.216-2.789 1.068-3.355 1.948z" fill="#3762cc"/></g><g><path d="m191.859 54.801h-52.215c-1.422 0-2.574-1.152-2.574-2.574 0-1.421 1.152-2.574 2.574-2.574h52.215c1.422 0 2.574 1.152 2.574 2.574 0 1.422-1.153 2.574-2.574 2.574z" fill="#b9befc"/></g><g><path d="m191.859 69.509h-52.215c-1.422 0-2.574-1.152-2.574-2.574 0-1.422 1.152-2.574 2.574-2.574h52.215c1.422 0 2.574 1.152 2.574 2.574 0 1.422-1.153 2.574-2.574 2.574z" fill="#b9befc"/></g><g><path d="m191.859 113.634h-52.215c-1.422 0-2.574-1.152-2.574-2.574 0-1.422 1.152-2.574 2.574-2.574h52.215c3.423 0 3.429 5.148 0 5.148z" fill="#b9befc"/></g><g><path d="m191.859 128.343h-52.215c-1.422 0-2.574-1.152-2.574-2.574 0-1.421 1.152-2.574 2.574-2.574h52.215c1.422 0 2.574 1.152 2.574 2.574 0 1.421-1.153 2.574-2.574 2.574z" fill="#b9befc"/></g><g><path d="m117.336 54.801h-24.452c-1.422 0-2.574-1.152-2.574-2.574 0-1.422 1.152-2.574 2.574-2.574h24.453c1.422 0 2.574 1.152 2.574 2.574-.001 1.422-1.153 2.574-2.575 2.574z" fill="#b9befc"/></g><g><path d="m117.336 69.509h-24.452c-1.422 0-2.574-1.152-2.574-2.574 0-1.421 1.152-2.574 2.574-2.574h24.453c1.422 0 2.574 1.152 2.574 2.574-.001 1.422-1.153 2.574-2.575 2.574z" fill="#b9befc"/></g><g><path d="m117.336 84.218h-52.214c-1.422 0-2.574-1.152-2.574-2.574 0-1.422 1.152-2.574 2.574-2.574h52.215c1.422 0 2.574 1.152 2.574 2.574-.001 1.421-1.153 2.574-2.575 2.574z" fill="#b9befc"/></g><g><path d="m117.336 98.926h-52.214c-1.422 0-2.574-1.152-2.574-2.574 0-1.422 1.152-2.574 2.574-2.574h52.215c1.422 0 2.574 1.152 2.574 2.574-.001 1.422-1.153 2.574-2.575 2.574z" fill="#b9befc"/></g><g><path d="m118.44 128.343h-54.421c-.812 0-1.471-.659-1.471-1.471v-16.915c0-.812.659-1.471 1.471-1.471h54.421c.812 0 1.471.659 1.471 1.471v16.915c-.001.812-.659 1.471-1.471 1.471z" fill="#b9befc"/></g><g><path d="m85.346 69.509h-21.327c-.812 0-1.471-.659-1.471-1.471v-16.914c0-.812.659-1.471 1.471-1.471h21.327c.812 0 1.471.659 1.471 1.471v16.915c0 .812-.659 1.47-1.471 1.47z" fill="#b9befc"/></g><g><path d="m192.962 98.926h-54.421c-.812 0-1.471-.659-1.471-1.471v-16.914c0-.812.659-1.471 1.471-1.471h54.421c.812 0 1.471.659 1.471 1.471v16.915c0 .811-.659 1.47-1.471 1.47z" fill="#b9befc"/></g><g><path d="m167.17 40.809h-7.933c-.586-1.873-1.345-3.701-2.26-5.44 5.896-5.896 6.787-6.302 6.787-8.446 0-1.07-.417-2.075-1.173-2.831l-8.124-8.124c-1.565-1.565-4.098-1.565-5.663 0l-5.614 5.615c-1.74-.915-3.567-1.675-5.44-2.261v-7.933c0-2.208-1.796-4.004-4.004-4.004h-11.49c-2.208 0-4.004 1.796-4.004 4.004v7.933c-1.872.586-3.7 1.345-5.44 2.261-5.892-5.892-6.3-6.787-8.445-6.787-1.07 0-2.075.417-2.832 1.173-12.092 12.092-12.07 9.841-2.51 19.402-.915 1.739-1.674 3.567-2.26 5.44h-7.935c-2.208 0-4.004 1.796-4.004 4.004v11.49c0 2.208 1.796 4.004 4.004 4.004h7.933c.586 1.873 1.345 3.701 2.26 5.44-5.892 5.892-6.787 6.3-6.787 8.446 0 2.169.563 2.221 9.297 10.956.756.756 1.762 1.173 2.832 1.173 1.069 0 2.075-.417 2.831-1.173l5.614-5.615c1.74.915 3.567 1.675 5.44 2.261v7.933c0 2.208 1.796 4.004 4.004 4.004h11.49c2.208 0 4.004-1.796 4.004-4.004v-7.933c1.872-.586 3.7-1.345 5.44-2.261 5.892 5.892 6.3 6.787 8.445 6.787 1.07 0 2.075-.417 2.832-1.173l8.124-8.124c1.566-1.566 1.565-4.098 0-5.663l-5.614-5.615c.915-1.739 1.674-3.567 2.26-5.44h7.933c2.208 0 4.004-1.796 4.004-4.004v-11.49c.002-2.209-1.794-4.005-4.002-4.005zm-19.944 9.749c0 10.602-8.625 19.226-19.226 19.226s-19.226-8.625-19.226-19.226 8.625-19.226 19.226-19.226 19.226 8.624 19.226 19.226z" fill="#ffea94"/></g><g><path d="m128 27.833c-12.53 0-22.724 10.194-22.724 22.724 0 12.531 10.194 22.725 22.724 22.725 12.531 0 22.725-10.194 22.725-22.725 0-12.529-10.194-22.724-22.725-22.724zm0 34.638c-6.569 0-11.914-5.345-11.914-11.914s5.344-11.913 11.914-11.913c6.569 0 11.914 5.343 11.914 11.913s-5.345 11.914-11.914 11.914z" fill="#a4c9ff"/></g><g><path d="m133.745 95.731h-11.49c-3.311 0-6.004-2.693-6.004-6.004v-6.497c-1.032-.372-2.049-.794-3.044-1.265l-4.597 4.597c-1.134 1.134-2.642 1.759-4.245 1.759s-3.111-.625-4.245-1.759c-1.646-1.646-3.001-2.982-4.116-4.083-4.999-4.933-5.768-5.69-5.768-8.287 0-2.598.988-3.568 4.665-7.18.5-.492 1.062-1.043 1.689-1.665-.469-.991-.891-2.008-1.264-3.041h-6.496c-3.311 0-6.004-2.693-6.004-6.004v-11.489c0-3.312 2.693-6.005 6.004-6.005h6.497c.372-1.032.794-2.048 1.263-3.038-.436-.429-.847-.831-1.234-1.209-3.367-3.292-5.222-5.104-5.223-7.575-.001-2.636 2.062-4.652 6.579-9.072 1.004-.982 2.139-2.093 3.408-3.361 1.133-1.134 2.641-1.758 4.245-1.758 2.599 0 3.569.988 7.181 4.664.491.501 1.042 1.062 1.664 1.689.992-.469 2.008-.891 3.041-1.264v-6.496c0-3.311 2.693-6.004 6.004-6.004h11.49c3.311 0 6.004 2.693 6.004 6.004v6.496c1.032.373 2.05.795 3.044 1.265l4.597-4.597c2.34-2.342 6.15-2.342 8.49 0l8.124 8.125c1.135 1.133 1.76 2.641 1.76 4.245 0 2.598-.988 3.568-4.665 7.181-.501.492-1.062 1.043-1.689 1.665.469.991.892 2.008 1.264 3.04h6.497c3.311 0 6.004 2.693 6.004 6.005v11.489c0 3.311-2.693 6.004-6.004 6.004h-6.497c-.373 1.034-.796 2.052-1.265 3.045l4.596 4.596c1.135 1.134 1.76 2.642 1.761 4.245 0 1.604-.625 3.112-1.761 4.247l-8.124 8.123c-1.134 1.134-2.642 1.759-4.245 1.759-2.598 0-3.568-.987-7.177-4.661-.492-.501-1.045-1.063-1.668-1.692-.993.469-2.01.892-3.041 1.263v6.497c-.001 3.31-2.694 6.003-6.005 6.003zm-20.933-18.197c.316 0 .636.075.93.229 1.636.86 3.354 1.574 5.106 2.121.835.261 1.403 1.034 1.403 1.909v7.934c0 1.104.899 2.004 2.004 2.004h11.49c1.104 0 2.004-.899 2.004-2.004v-7.934c0-.875.568-1.648 1.403-1.909 1.754-.548 3.472-1.262 5.106-2.121.776-.407 1.726-.263 2.345.356 1.068 1.067 1.956 1.972 2.708 2.737 3.403 3.464 3.508 3.464 4.323 3.464.535 0 1.038-.208 1.417-.587l8.124-8.124c.38-.38.589-.883.589-1.418 0-.534-.209-1.037-.589-1.416l-5.614-5.615c-.62-.619-.764-1.57-.355-2.346.856-1.628 1.57-3.346 2.121-5.105.262-.835 1.034-1.403 1.909-1.403h7.934c1.104 0 2.004-.899 2.004-2.004v-11.489c0-1.105-.899-2.005-2.004-2.005h-7.934c-.875 0-1.647-.568-1.909-1.403-.55-1.759-1.264-3.476-2.121-5.104-.408-.775-.265-1.727.355-2.346 1.066-1.066 1.97-1.954 2.733-2.705 3.469-3.407 3.469-3.512 3.469-4.327 0-.535-.209-1.038-.587-1.416l-8.125-8.126c-.758-.758-2.076-.758-2.834 0l-5.614 5.615c-.618.619-1.568.764-2.345.356-1.635-.859-3.353-1.573-5.106-2.122-.835-.262-1.403-1.034-1.403-1.909v-7.933c0-1.104-.899-2.004-2.004-2.004h-11.49c-1.104 0-2.004.899-2.004 2.004v7.933c0 .874-.568 1.647-1.402 1.908-1.76.552-3.479 1.266-5.106 2.122-.776.41-1.728.264-2.346-.355-1.066-1.066-1.953-1.97-2.704-2.733-3.406-3.468-3.511-3.468-4.327-3.468-.536 0-1.039.208-1.417.586-1.28 1.281-2.426 2.401-3.439 3.393-3.004 2.938-5.376 5.26-5.376 6.212 0 .787 1.862 2.607 4.019 4.715.689.674 1.452 1.42 2.287 2.255.62.619.764 1.57.355 2.346-.856 1.627-1.57 3.345-2.121 5.105-.262.834-1.035 1.402-1.909 1.402h-7.935c-1.104 0-2.004.899-2.004 2.005v11.489c0 1.104.899 2.004 2.004 2.004h7.934c.875 0 1.647.568 1.909 1.403.551 1.76 1.265 3.478 2.121 5.105.408.775.265 1.727-.355 2.346-1.066 1.066-1.97 1.954-2.734 2.705-3.468 3.406-3.468 3.511-3.468 4.326 0 .854 0 .924 4.577 5.439 1.12 1.106 2.481 2.449 4.135 4.103.758.758 2.076.758 2.834 0l5.614-5.614c.383-.385.896-.586 1.415-.586z" fill="#3762cc"/></g><g><circle cx="128" cy="50.472" fill="#e0ebfc" r="15.802"/></g><g><path d="m121.229 42.231v15.442c0 1.133 1.215 1.851 2.207 1.305l14.038-7.721c1.029-.566 1.029-2.044 0-2.61l-14.038-7.721c-.992-.546-2.207.172-2.207 1.305z" fill="#f9a7a7"/></g></g></svg>