<svg id="Layer_1" enable-background="new 0 0 450 450" height="512" viewBox="0 0 450 450" width="512" xmlns="http://www.w3.org/2000/svg"><g><g id="XMLID_1_"><g fill="#193e80"><path d="m53.73 93.16c0 1.79-.73 3.42-1.9 4.6-1.18 1.17-2.8 1.9-4.59 1.9h-30.74c-3.59 0-6.5-2.92-6.5-6.5s2.92-6.5 6.5-6.5h30.74c1.79 0 3.41.73 4.59 1.9 1.17 1.18 1.9 2.81 1.9 4.6z"/><path d="m53.73 159.07c0 1.8-.73 3.42-1.9 4.6-1.18 1.17-2.8 1.9-4.59 1.9h-30.74c-3.59 0-6.5-2.92-6.5-6.5s2.92-6.49 6.5-6.49h30.74c1.79 0 3.41.73 4.59 1.9 1.17 1.19 1.9 2.81 1.9 4.59z"/><path d="m53.73 225c0 1.8-.73 3.42-1.9 4.59-1.18 1.18-2.8 1.9-4.59 1.9h-30.74c-3.59 0-6.5-2.91-6.5-6.49s2.92-6.5 6.5-6.5v.01h30.74c1.79 0 3.41.72 4.59 1.9 1.17 1.17 1.9 2.79 1.9 4.59z"/><path d="m53.73 290.93c0 1.11-.28 2.16-.77 3.08 0 0-.01 0-.01.01-.3.54-.68 1.06-1.12 1.5-1.18 1.17-2.8 1.9-4.59 1.9h-30.74c-3.59 0-6.5-2.92-6.5-6.49 0-3.59 2.92-6.5 6.5-6.5h30.74c1.79 0 3.41.73 4.59 1.9 1.17 1.18 1.9 2.8 1.9 4.6z"/><path d="m53.73 356.84c0 1.79-.73 3.42-1.9 4.59-1.18 1.17-2.8 1.9-4.59 1.9h-30.74c-3.59 0-6.5-2.91-6.5-6.49s2.92-6.5 6.5-6.5h30.74c1.79 0 3.41.73 4.59 1.9 1.17 1.18 1.9 2.81 1.9 4.6z"/></g><path d="m98.5 38.82v372.36h-55.63c-3.37 0-6.12-2.75-6.12-6.12v-31.96h10.49c8.97 0 16.27-7.3 16.27-16.27 0-4.48-1.82-8.55-4.77-11.5-1.1-1.11-2.36-2.06-3.75-2.81-.92-.5-1.89-.92-2.92-1.23-1.53-.47-3.15-.73-4.83-.73h-10.49v-33.37h10.49c4.48 0 8.56-1.83 11.5-4.78 2.95-2.95 4.77-7 4.77-11.49 0-4.48-1.82-8.55-4.77-11.5-.18-.19-.38-.37-.56-.54-.39-.34-.78-.68-1.2-.99s-.86-.61-1.31-.88c-2.46-1.49-5.34-2.36-8.43-2.36h-10.49v-33.38h10.49c8.97 0 16.27-7.3 16.27-16.28 0-4.48-1.82-8.54-4.77-11.49-.18-.19-.38-.37-.56-.54-.39-.36-.78-.69-1.2-.99-.42-.31-.86-.61-1.31-.88-.44-.27-.91-.52-1.38-.75s-.96-.44-1.46-.62c-1.74-.65-3.62-.99-5.58-.99h-10.5v-33.37h10.49c8.97 0 16.27-7.31 16.27-16.28s-7.3-16.27-16.27-16.27h-10.49v-33.38h10.49c8.97 0 16.27-7.3 16.27-16.27s-7.3-16.27-16.27-16.27h-10.49v-31.96c0-3.37 2.75-6.12 6.12-6.12h55.63z" fill="#03aadf"/><path d="m243.12 255.22c30.22 0 54.8 24.59 54.8 54.81s-24.58 54.81-54.8 54.81-54.81-24.59-54.81-54.81 24.59-54.81 54.81-54.81zm4.88 14.66c0-2.7-2.18-4.89-4.89-4.89-24.83 0-45.03 20.21-45.03 45.05 0 24.83 20.2 45.04 45.03 45.04 2.71 0 4.89-2.2 4.89-4.89 0-2.71-2.18-4.89-4.89-4.89-19.43 0-35.26-15.82-35.26-35.26 0-19.45 15.83-35.26 35.26-35.26 2.71-.02 4.89-2.2 4.89-4.9z" fill="#03aadf"/><path d="m108.27 38.82v372.35h274.09v-372.35zm134.85 335.79c-35.62 0-64.59-28.97-64.59-64.58s28.98-64.59 64.59-64.59 64.58 28.98 64.58 64.59c.01 35.61-28.97 64.58-64.58 64.58zm78.42-167.23c-4.24 7.35-15.31 7.08-42.06 6.43-9.25-.23-20.75-.51-34.16-.51-13.4 0-24.91.28-34.15.51-6.74.16-12.48.3-17.36.3-14.53 0-21.53-1.23-24.69-6.72-4.24-7.34 1.53-16.8 15.46-39.63 4.82-7.89 10.81-17.72 17.52-29.34 6.7-11.61 12.21-21.71 16.64-29.84 12.81-23.49 18.12-33.21 26.59-33.21 8.48 0 13.78 9.72 26.6 33.21 4.42 8.12 9.93 18.22 16.63 29.84 3.36 5.8 6.53 11.17 9.47 16.06 2.94 4.9 5.65 9.33 8.05 13.27 13.92 22.84 19.7 32.3 15.46 39.63zm43.27-144.97h-234.1v330.06c0 2.7-2.18 4.88-4.88 4.88-2.71 0-4.89-2.18-4.89-4.88v-334.94c0-2.7 2.18-4.89 4.89-4.89h238.99c2.7 0 4.89 2.2 4.89 4.89-.01 2.7-2.2 4.88-4.9 4.88z" fill="#193e80"/><path d="m297.73 172.84c-4.85-7.95-10.87-17.82-17.64-29.53-6.76-11.72-12.3-21.87-16.76-30.04-7.73-14.16-15.01-27.53-18.05-28.12-2.96.6-10.25 13.97-17.97 28.12-4.45 8.16-9.99 18.33-16.76 30.04-6.76 11.71-12.8 21.6-17.64 29.53-8.41 13.76-16.33 26.76-15.33 29.69 2 2.27 17.22 1.89 33.34 1.51 9.29-.23 20.87-.51 34.39-.51 13.53 0 25.1.28 34.4.51 16.11.39 31.33.76 33.37-1.58.97-2.85-6.96-15.86-15.35-29.62zm-52.42 20.92c-10.74 0-21.66.25-32.23.48l-12.72.27h-.13c-1.76 0-3.54-.93-4.42-2.45-.89-1.56-1.05-3.48-.1-5l6.71-11.07c5.51-9.07 11.2-18.45 16.6-27.8 5.37-9.31 10.63-18.9 15.71-28.16l6.3-11.48c1.29-2.37 4.25-3.23 6.63-1.95 2.36 1.3 3.24 4.27 1.94 6.63l-6.31 11.5c-5.1 9.33-10.38 18.95-15.82 28.35-5.46 9.45-11.18 18.87-16.72 27.99l-2.11 3.49 4.22-.09c10.61-.23 21.59-.47 32.44-.47 2.71 0 4.89 2.18 4.89 4.88.01 2.7-2.17 4.88-4.88 4.88z" fill="#03aadf"/><path d="m426.44 379.58-10.37 24.12-10.37-24.12c6.59-2.51 14.14-2.51 20.74 0z" fill="#193e80"/><path d="m437.47 353.92-7.17 16.7c-9.04-3.5-19.41-3.5-28.46 0l-7.17-16.7z" fill="#193e80"/><path d="m440 62.76v14.07h-47.86v-14.07c0-13.2 10.74-23.94 23.93-23.94s23.93 10.73 23.93 23.94z" fill="#193e80"/><path d="m392.14 86.62h19.05v257.52h-19.05z" fill="#03aadf"/><path d="m420.96 86.62h19.04v257.52h-19.04z" fill="#03aadf"/></g></g></svg>