<svg clip-rule="evenodd" fill-rule="evenodd" height="512" image-rendering="optimizeQuality" shape-rendering="geometricPrecision" text-rendering="geometricPrecision" viewBox="0 0 512 512" width="512" xmlns="http://www.w3.org/2000/svg" xmlns:xodm="http://www.corel.com/coreldraw/odm/2003"><g id="Layer_x0020_1"><g id="_2509413682128"><path d="m192.63 365.77c-.06 0-.12 0-.18 0-47.62-1.51-92.15-21.2-125.38-55.44-.79-.81-1.56-1.63-2.33-2.45l130.56-128.26 158.35-93.42c-3.87-6.2-8.11-12.16-12.68-17.86 26.12 32.39 40.31 72.4 40.31 114.6 0 9.84-.8 19.77-2.38 29.5-.26 1.64-1.22 3.09-2.63 3.98-1.41.88-3.13 1.11-4.72.64-12.46-3.68-25.4-5.56-38.48-5.56-74.59 0-135.27 60.69-135.27 135.28 0 4 .18 8.1.55 12.2.06.33.09.66.09 1 0 3.2-2.6 5.79-5.79 5.79-.01 0-.01 0-.02 0zm146.99-299.09c.39.48.79.97 1.18 1.45-.39-.48-.79-.97-1.18-1.45z" fill="#ff5959"/><g><path d="m340.95 512c-85.82 0-155.64-69.82-155.64-155.64s69.82-155.64 155.64-155.64 155.64 69.82 155.64 155.64-69.82 155.64-155.64 155.64z" fill="#eb486a"/><path d="m340.95 469.94c-62.63 0-113.58-50.95-113.58-113.58s50.95-113.58 113.58-113.58 113.58 50.95 113.58 113.58-50.95 113.58-113.58 113.58z" fill="#fff"/><path d="m320.7 400.76c-1.79 0-3.59-.69-4.96-2.06l-34.26-34.26c-2.74-2.74-2.74-7.18 0-9.93 2.74-2.74 7.18-2.74 9.92 0l29.3 29.3 69.8-69.79c2.74-2.74 7.18-2.74 9.92 0s2.74 7.18 0 9.93l-74.75 74.75c-1.37 1.37-3.17 2.06-4.97 2.06z" fill="#78747a"/></g><path d="m192.23.1c-45.83 1.51-87.45 19.97-118.78 49.28-2.98 2.79-5.87 5.68-8.66 8.66l130.51 121.58 9.17-179.52c-2.03-.07-4.07-.1-6.12-.1s-4.09.03-6.12.1z" fill="#8ada51"/><path d="m353.65 86.2c-31.05-49.76-85.5-84.03-149.18-86.1l-9.17 179.52z" fill="#348ed3"/><path d="m195.3 179.62-130.51-121.58c-30.61 32.72-49.38 76.66-49.38 124.9 0 48.28 18.64 92.25 49.3 124.98z" fill="#fab757"/></g></g></svg>