<?xml version="1.0" encoding="iso-8859-1"?>
<!-- Generator: Adobe Illustrator 19.0.0, SVG Export Plug-In . SVG Version: 6.00 Build 0)  -->
<svg version="1.1" id="Layer_1" xmlns="http://www.w3.org/2000/svg" xmlns:xlink="http://www.w3.org/1999/xlink" x="0px" y="0px"
	 viewBox="0 0 512 512" style="enable-background:new 0 0 512 512;" xml:space="preserve">
<path style="fill:#7ACBFF;" d="M502.92,188.251C473.217,79.747,373.929,0,256,0C114.615,0,0,114.615,0,256
	c0,117.929,79.747,217.217,188.251,246.92L502.92,188.251z"/>
<path style="fill:#2F73A0;" d="M502.92,188.252l-89.587-89.587L98.666,413.334l89.586,89.586C209.832,508.828,232.545,512,256,512
	c141.384,0,256-114.616,256-256C512,232.545,508.828,209.832,502.92,188.252z"/>
<path style="fill:#C7E9FF;" d="M256,33.391L200.348,256L256,478.609c122.943,0,222.609-99.665,222.609-222.609
	S378.943,33.391,256,33.391z"/>
<path style="fill:#FFFFFF;" d="M33.391,256c0,122.943,99.665,222.609,222.609,222.609V33.391
	C133.057,33.391,33.391,133.057,33.391,256z"/>
<path style="fill:#FFB14E;" d="M307.866,62.448c-0.011,0.024-64.643,86.417-64.643,86.417L256,256l99.17-42.502l42.502-99.17
	C371.866,88.524,340.769,71.226,307.866,62.448z"/>
<path style="fill:#FF9356;" d="M449.526,204.144l-86.392,64.633L256,256l141.676-141.673
	C421.799,138.365,440.081,168.894,449.526,204.144z"/>
<path style="fill:#FF755C;" d="M449.526,307.856l-107.134,12.778L256,256l193.532-51.854
	C458.404,237.025,458.971,272.604,449.526,307.856z"/>
<path style="fill:#FF4181;" d="M397.671,397.671l-99.17-42.502L256,256l193.529,51.859
	C440.774,340.769,423.476,371.866,397.671,397.671z"/>
<path style="fill:#D63D76;" d="M307.856,449.526l-64.633-86.392L256,256l141.673,141.676
	C373.635,421.799,343.106,440.081,307.856,449.526z"/>
<path style="fill:#AD396B;" d="M204.144,449.526l-12.778-107.134L256,256l51.854,193.532
	C274.975,458.404,239.396,458.971,204.144,449.526z"/>
<path style="fill:#2F73A0;" d="M114.328,397.671l42.502-99.17L256,256l-51.859,193.529
	C171.231,440.774,140.134,423.476,114.328,397.671z"/>
<path style="fill:#45A2E0;" d="M62.474,307.856l86.392-64.633L256,256L114.324,397.673
	C90.201,373.635,71.919,343.106,62.474,307.856z"/>
<path style="fill:#7ACBFF;" d="M62.474,204.144l107.134-12.778L256,256L62.468,307.854
	C53.596,274.975,53.028,239.396,62.474,204.144z"/>
<path style="fill:#6FA953;" d="M114.328,114.328l99.17,42.502L256,256L62.47,204.141C71.226,171.231,88.524,140.134,114.328,114.328
	z"/>
<path style="fill:#A7CB5C;" d="M204.144,62.474l64.633,86.392L256,256L114.327,114.324
	C138.365,90.201,168.894,71.919,204.144,62.474z"/>
<path style="fill:#FFD86C;" d="M204.141,62.447C204.146,62.468,256,256,256,256l51.856-193.526
	C272.604,53.028,237.025,53.596,204.141,62.447z"/>
<path style="fill:#092A40;" d="M256,100.174L217.043,256L256,411.826c86.061,0,155.826-69.766,155.826-155.826
	S342.061,100.174,256,100.174z"/>
<path style="fill:#174461;" d="M100.174,256c0,86.061,69.766,155.826,155.826,155.826V100.174
	C169.939,100.174,100.174,169.939,100.174,256z"/>
<polygon style="fill:#C7E9FF;" points="368.541,256 256,230.029 199.729,256 199.729,353.464 "/>
<polygon style="fill:#FFFFFF;" points="199.729,158.536 199.729,256 368.541,256 "/>
<g>
</g>
<g>
</g>
<g>
</g>
<g>
</g>
<g>
</g>
<g>
</g>
<g>
</g>
<g>
</g>
<g>
</g>
<g>
</g>
<g>
</g>
<g>
</g>
<g>
</g>
<g>
</g>
<g>
</g>
</svg>
